<?xml version="1.0" encoding="utf-8"?>
<!-- Generator: Adobe Illustrator 23.0.3, SVG Export Plug-In . SVG Version: 6.00 Build 0)  -->
<svg version="1.1" id="Capa_1" xmlns="http://www.w3.org/2000/svg" xmlns:xlink="http://www.w3.org/1999/xlink" x="0px" y="0px"
	 viewBox="0 0 90.71 90.71" style="enable-background:new 0 0 90.71 90.71;" xml:space="preserve">
<style type="text/css">
	.st0{fill:url(#SVGID_1_);}
	.st1{fill:url(#SVGID_2_);}
</style>
<linearGradient id="SVGID_1_" gradientUnits="userSpaceOnUse" x1="43.9859" y1="45.7487" x2="90.7087" y2="45.7487">
	<stop  offset="0" style="stop-color:#0463EF"/>
	<stop  offset="1" style="stop-color:#07ABA0"/>
</linearGradient>
<path class="st0" d="M90.71,33.17c-2.93-1.71-5.07-4.25-6.65-6.58C73.53,11.12,68.69,10.95,65.78,8.3
	c-2.56-2.32-6.96-11.15-5.9-5.85c1.46,7.33-4.98,13.8-7.62,15.39c-2.65,1.59-2.39,4.24-3.98,8.75c-2.13,1.86-3.71,2.65-4.24,5.3
	c-0.53,2.65,3.18,4.78,4.24,7.16c1.06,2.39,1.33,1.86,10.34,2.92c9.02,1.06,10.08,6.1,6.89,14.04c-2.71,6.76,6.35,20.56,10.75,24.89
	c3.11,3.07,14.45,9.81,14.45,9.81V33.17z"/>
<linearGradient id="SVGID_2_" gradientUnits="userSpaceOnUse" x1="-0.0759" y1="55.1421" x2="45.3543" y2="55.1421">
	<stop  offset="0" style="stop-color:#9027E2"/>
	<stop  offset="1" style="stop-color:#FB4FAF"/>
</linearGradient>
<path class="st1" d="M32.52,90.71c0.64-1.18,1.17-3.22,1.74-4.44c0.82-1.74,1.54-3.53,2.07-5.35c0.56-1.91,0.9-3.84,0.9-5.77
	c0-1.44-0.12-2.88-0.32-4.31c-1.05-7.51-4.33-14.5-4-18.01c0,0,5.01,0.23,9.26-2.28c2.11-1.24,3.07-2.71,3.18-4.25
	c0.11-1.54-0.63-3.15-1.89-4.64c-0.46-0.54-0.72-1.09-0.87-1.65c-0.67-2.53,0.87-5.32-3.42-8.6c-4.22-3.22-7.68-2.86-7.99-2.81
	c0.02-0.24,0.3-3.98,1.19-6.91c0.23-0.78,0.51-1.51,0.84-2.1c0,0-0.04,0.01-0.11,0.04c0.01-0.02,0.02-0.04,0.03-0.06
	c0,0-0.01,0-0.01,0c-0.01,0-0.01,0-0.02,0.01c0,0,0,0-0.01,0c-0.01,0-0.02,0.01-0.03,0.01c0,0-0.01,0-0.01,0.01
	c-0.01,0-0.03,0.01-0.05,0.02c0,0-0.01,0-0.01,0c-0.02,0.01-0.04,0.01-0.06,0.02c-0.01,0-0.01,0-0.02,0.01
	c-0.03,0.01-0.06,0.02-0.09,0.03c0,0,0,0-0.01,0c-0.1,0.04-0.23,0.09-0.38,0.15c0,0-0.01,0-0.01,0c-0.05,0.02-0.09,0.04-0.15,0.06
	c-0.01,0-0.01,0-0.02,0.01c-0.05,0.02-0.1,0.04-0.15,0.06c-0.01,0-0.01,0.01-0.02,0.01c-0.05,0.02-0.11,0.05-0.17,0.07
	c-0.01,0-0.01,0-0.02,0.01c-0.32,0.13-0.69,0.3-1.11,0.49c-0.01,0-0.01,0.01-0.02,0.01c-0.08,0.04-0.16,0.07-0.24,0.11
	c-0.01,0-0.02,0.01-0.03,0.01c-0.08,0.04-0.16,0.08-0.24,0.12c-0.01,0-0.02,0.01-0.02,0.01c-0.09,0.04-0.18,0.09-0.27,0.13
	c0,0,0,0,0,0c-0.38,0.19-0.78,0.39-1.21,0.62c-0.01,0.01-0.03,0.01-0.04,0.02c-0.09,0.05-0.18,0.1-0.28,0.15
	c-0.02,0.01-0.04,0.02-0.05,0.03c-0.09,0.05-0.18,0.1-0.27,0.15c-0.02,0.01-0.04,0.02-0.06,0.03c-0.09,0.05-0.19,0.1-0.28,0.16
	c-0.02,0.01-0.03,0.02-0.05,0.03c-0.11,0.06-0.22,0.13-0.33,0.19c0,0,0,0-0.01,0c-0.23,0.14-0.46,0.28-0.7,0.42
	c-0.01,0.01-0.03,0.02-0.04,0.03c-0.1,0.06-0.2,0.12-0.3,0.19c-0.03,0.02-0.06,0.04-0.09,0.06c-0.09,0.05-0.17,0.11-0.26,0.16
	c-0.04,0.02-0.08,0.05-0.11,0.07c-0.08,0.05-0.16,0.1-0.24,0.16c-0.04,0.03-0.08,0.05-0.12,0.08c-0.08,0.05-0.16,0.11-0.24,0.16
	c-0.04,0.03-0.08,0.06-0.13,0.09c-0.08,0.06-0.16,0.11-0.25,0.17c-0.04,0.03-0.08,0.05-0.12,0.08c-0.1,0.07-0.2,0.14-0.3,0.21
	c-0.02,0.02-0.05,0.03-0.07,0.05c-0.12,0.09-0.24,0.17-0.36,0.26c-0.05,0.04-0.1,0.07-0.15,0.11c-0.07,0.05-0.14,0.11-0.21,0.16
	c-0.06,0.04-0.12,0.09-0.18,0.13c-0.01,0.01-0.03,0.02-0.04,0.03c-0.03,0.02-0.05,0.04-0.08,0.06c0,0-0.01,0.01-0.01,0.01
	c-2.28,1.73-4.62,3.93-6.63,6.66c-0.9,1.22-1.73,2.54-2.45,3.97c-0.01,0.02-0.02,0.05-0.03,0.07c-0.13,0.29-0.25,0.59-0.36,0.87
	c-0.01,0.02-0.02,0.05-0.03,0.07c-0.09,0.2-0.18,0.4-0.27,0.6c-0.03,0.08-0.06,0.15-0.1,0.22c-0.05,0.12-0.11,0.25-0.16,0.37
	c-0.04,0.09-0.07,0.18-0.11,0.26c-0.04,0.11-0.09,0.21-0.13,0.32c-0.04,0.09-0.07,0.17-0.1,0.26c-0.04,0.11-0.09,0.22-0.13,0.33
	c-0.03,0.07-0.06,0.15-0.08,0.22c-0.05,0.12-0.1,0.25-0.14,0.37c-0.02,0.05-0.04,0.1-0.06,0.15c-0.06,0.15-0.11,0.3-0.17,0.46
	c-0.01,0.01-0.01,0.03-0.02,0.04c-1.65,4.62-2.21,8.51-2.99,12.03c-0.01,0.02-0.01,0.05-0.02,0.07c-0.02,0.1-0.05,0.2-0.07,0.3
	c-0.01,0.05-0.02,0.1-0.04,0.15c-0.02,0.07-0.03,0.15-0.05,0.22c-0.01,0.06-0.03,0.12-0.04,0.18c-0.01,0.06-0.03,0.12-0.05,0.18
	c-0.02,0.07-0.03,0.14-0.05,0.2c-0.01,0.05-0.03,0.11-0.04,0.16c-0.02,0.07-0.04,0.15-0.06,0.22C9.01,54.03,9,54.08,8.99,54.12
	c-0.08,0.29-0.16,0.57-0.24,0.86C8.74,55,8.73,55.03,8.73,55.05c-0.02,0.08-0.05,0.16-0.08,0.25c-0.01,0.04-0.02,0.08-0.04,0.11
	c-0.02,0.08-0.05,0.16-0.08,0.24c-0.01,0.04-0.03,0.08-0.04,0.12C8.47,55.85,8.45,55.93,8.42,56c-0.01,0.04-0.03,0.08-0.04,0.12
	c-0.03,0.08-0.06,0.16-0.08,0.24c-0.01,0.04-0.03,0.07-0.04,0.11c-0.03,0.08-0.06,0.16-0.09,0.25c-0.01,0.02-0.02,0.04-0.03,0.07
	c-0.11,0.28-0.22,0.57-0.35,0.85c-0.01,0.03-0.03,0.07-0.04,0.1c-0.03,0.08-0.07,0.15-0.1,0.23C7.63,58,7.61,58.04,7.59,58.08
	c-0.03,0.07-0.07,0.14-0.1,0.22c-0.02,0.04-0.04,0.09-0.06,0.13c-0.03,0.07-0.07,0.14-0.11,0.21c-0.02,0.04-0.05,0.09-0.07,0.13
	c-0.04,0.07-0.07,0.14-0.11,0.21c-0.02,0.04-0.05,0.09-0.07,0.13C7.03,59.19,7,59.26,6.96,59.33c-0.01,0.03-0.03,0.05-0.04,0.08
	c-0.09,0.15-0.17,0.3-0.26,0.45c-0.03,0.04-0.05,0.09-0.08,0.13c-0.04,0.06-0.08,0.13-0.12,0.19c-0.03,0.05-0.06,0.1-0.1,0.15
	c-0.04,0.06-0.08,0.12-0.12,0.19c-0.04,0.05-0.07,0.11-0.11,0.16C6.08,60.74,6.04,60.8,6,60.86c-0.04,0.05-0.08,0.11-0.12,0.16
	c-0.04,0.06-0.08,0.12-0.13,0.18c-0.04,0.06-0.08,0.11-0.13,0.17c-0.04,0.06-0.08,0.11-0.13,0.17c-0.05,0.06-0.1,0.13-0.15,0.19
	c-0.04,0.05-0.08,0.1-0.12,0.15C5.15,62,5.06,62.11,4.97,62.22c-0.04,0.05-0.08,0.09-0.12,0.14c-0.06,0.07-0.12,0.14-0.18,0.2
	c-0.04,0.05-0.09,0.1-0.13,0.15c-0.06,0.07-0.12,0.13-0.17,0.2c-0.05,0.05-0.09,0.1-0.14,0.15c-0.06,0.07-0.12,0.13-0.18,0.2
	c-0.05,0.05-0.1,0.1-0.14,0.15c-0.07,0.07-0.13,0.14-0.2,0.2c-0.05,0.05-0.09,0.1-0.14,0.14c-0.07,0.07-0.15,0.15-0.23,0.22
	c-0.04,0.04-0.08,0.08-0.12,0.12c-0.12,0.11-0.24,0.23-0.37,0.34c-0.24,0.22-0.48,0.44-0.72,0.65c-0.18,0.16-0.36,0.33-0.54,0.49
	c-0.02,0.02-0.04,0.03-0.05,0.05L0.95,66.2c0.11,0.22,0.23-0.58,0.35-0.36c0,0,0,0,0,0c-0.12-0.22-0.24,0.58-0.35,0.36l-1.03,1.02
	L0,90.71H32.52z"/>
</svg>
