<?xml version="1.0" encoding="utf-8"?>
<!-- Generator: Adobe Illustrator 23.0.3, SVG Export Plug-In . SVG Version: 6.00 Build 0)  -->
<svg version="1.1" id="Layer_1" xmlns="http://www.w3.org/2000/svg" xmlns:xlink="http://www.w3.org/1999/xlink" x="0px" y="0px"
	 viewBox="0 0 266 69" style="enable-background:new 0 0 266 69;" xml:space="preserve">
<style type="text/css">
	.st0{enable-background:new    ;}
	.st1{fill:#C800AA;}
	.st2{fill:url(#SVGID_1_);}
	.st3{fill:url(#SVGID_2_);}
</style>
<g>
	<g class="st0">
		<path class="st1" d="M69.9,28.8c-0.2-0.3-0.4-0.7-0.6-1.3C69.1,27,69,26.4,69,25.8c0-1.1,0.2-1.9,0.7-2.4s1.1-0.7,1.9-0.7H90
			c0.2,0.3,0.4,0.7,0.5,1.3c0.2,0.5,0.3,1.1,0.3,1.7c0,1.1-0.2,1.9-0.7,2.4s-1.1,0.7-1.9,0.7h-4.7v19.5c-0.3,0.1-0.8,0.2-1.5,0.3
			s-1.3,0.1-2,0.1c-0.6,0-1.2,0-1.7-0.1s-0.9-0.3-1.2-0.5c-0.3-0.3-0.6-0.6-0.8-1.1S76,46,76,45.2V28.8C76,28.8,69.9,28.8,69.9,28.8
			z"/>
		<path class="st1" d="M93.7,22.2c0-1.1,0.4-2,1.1-2.7s1.7-1.1,2.9-1.1s2.1,0.4,2.9,1.1c0.7,0.7,1.1,1.6,1.1,2.7s-0.4,2-1.1,2.7
			c-0.7,0.7-1.7,1.1-2.9,1.1s-2.1-0.4-2.9-1.1C94,24.2,93.7,23.3,93.7,22.2z M101.2,48.4c-0.3,0.1-0.8,0.1-1.4,0.2
			c-0.6,0.1-1.2,0.1-1.8,0.1s-1.2,0-1.7-0.1s-0.9-0.3-1.2-0.5s-0.6-0.6-0.8-1s-0.3-1-0.3-1.7V28.2c0.3-0.1,0.8-0.1,1.4-0.2
			c0.6-0.1,1.2-0.1,1.8-0.1s1.2,0,1.7,0.1s0.9,0.3,1.2,0.5c0.3,0.3,0.6,0.6,0.8,1s0.3,1,0.3,1.7V48.4z"/>
		<path class="st1" d="M118.8,35.5c0-0.9-0.2-1.5-0.7-1.9s-1.2-0.6-2-0.6c-0.6,0-1.1,0.1-1.7,0.2c-0.5,0.1-1,0.4-1.4,0.6v14.7
			c-0.3,0.1-0.7,0.2-1.3,0.3c-0.6,0.1-1.2,0.1-1.9,0.1c-0.6,0-1.2,0-1.7-0.1s-0.9-0.3-1.2-0.5s-0.6-0.6-0.8-1s-0.3-1-0.3-1.7V32.9
			c0-0.8,0.2-1.4,0.5-1.9s0.8-0.9,1.3-1.3c1-0.7,2.2-1.2,3.6-1.7c1.5-0.4,3.1-0.6,4.8-0.6c3.2,0,5.6,0.7,7.4,2.1
			c1.7,1.4,2.6,3.3,2.6,5.8v13.2c-0.3,0.1-0.7,0.2-1.3,0.3c-0.6,0.1-1.2,0.1-1.9,0.1c-0.6,0-1.2,0-1.7-0.1s-0.9-0.3-1.2-0.5
			c-0.3-0.3-0.6-0.6-0.8-1s-0.3-1-0.3-1.7C118.8,45.6,118.8,35.5,118.8,35.5z"/>
		<path class="st1" d="M129.5,38.2c0-1.9,0.3-3.5,0.8-4.8c0.6-1.4,1.3-2.5,2.3-3.4s2.2-1.6,3.5-2s2.8-0.7,4.3-0.7
			c0.6,0,1.1,0,1.6,0.1s1,0.2,1.3,0.4v-6.9c0.3-0.1,0.7-0.2,1.4-0.3s1.3-0.1,1.9-0.1c0.6,0,1.2,0,1.7,0.1s0.9,0.3,1.2,0.5
			c0.3,0.3,0.6,0.6,0.8,1s0.3,1,0.3,1.7v20.1c0,1.3-0.6,2.4-1.9,3.2c-0.8,0.5-1.9,1-3.2,1.4s-2.8,0.6-4.5,0.6
			c-1.8,0-3.5-0.3-4.9-0.8c-1.5-0.5-2.7-1.2-3.7-2.2s-1.8-2.1-2.3-3.4C129.8,41.4,129.5,39.9,129.5,38.2z M141.5,32.9
			c-1.5,0-2.7,0.4-3.5,1.3s-1.2,2.2-1.2,4c0,1.7,0.4,3.1,1.1,4c0.8,0.9,1.9,1.3,3.3,1.3c0.5,0,1-0.1,1.4-0.2c0.4-0.2,0.7-0.3,1-0.5
			v-9.3C143,33.1,142.3,32.9,141.5,32.9z"/>
		<path class="st1" d="M166.1,49.2c-1.7,0-3.2-0.2-4.6-0.7c-1.4-0.5-2.7-1.2-3.7-2.1s-1.9-2.1-2.5-3.5s-0.9-3.1-0.9-4.9
			c0-1.9,0.3-3.5,0.9-4.8c0.6-1.3,1.4-2.4,2.4-3.3s2.1-1.5,3.4-1.9s2.6-0.6,3.9-0.6c1.5,0,2.9,0.2,4.1,0.7s2.3,1.1,3.2,1.9
			s1.6,1.7,2.1,2.8c0.5,1.1,0.7,2.3,0.7,3.6c0,1-0.3,1.7-0.8,2.2s-1.3,0.8-2.2,1l-10.4,1.6c0.3,0.9,0.9,1.6,1.9,2.1s2.1,0.7,3.3,0.7
			s2.2-0.1,3.3-0.4c1-0.3,1.9-0.6,2.5-1c0.5,0.3,0.8,0.7,1.1,1.2s0.5,1,0.5,1.6c0,1.3-0.6,2.2-1.8,2.8c-0.9,0.5-1.9,0.8-3,1
			C168.4,49.4,167.1,49.2,166.1,49.2z M164.9,32.5c-0.7,0-1.3,0.1-1.8,0.3c-0.5,0.2-0.9,0.5-1.2,0.9s-0.5,0.7-0.7,1.2
			c-0.2,0.4-0.2,0.9-0.3,1.3l7.2-1.2c-0.1-0.6-0.4-1.1-0.9-1.7C166.7,32.8,165.9,32.5,164.9,32.5z"/>
		<path class="st1" d="M185.6,48.4c-0.3,0.1-0.7,0.2-1.3,0.3s-1.2,0.1-1.9,0.1c-0.6,0-1.2,0-1.7-0.1s-0.9-0.3-1.2-0.5
			c-0.3-0.3-0.6-0.6-0.8-1s-0.3-1-0.3-1.7V32.8c0-0.6,0.1-1.2,0.4-1.7c0.2-0.5,0.6-0.9,1-1.2c0.4-0.3,1-0.7,1.7-1s1.4-0.6,2.1-0.8
			c0.8-0.2,1.6-0.4,2.4-0.5s1.6-0.2,2.5-0.2c1.4,0,2.4,0.3,3.2,0.8s1.2,1.4,1.2,2.6c0,0.4-0.1,0.8-0.2,1.2c-0.1,0.4-0.3,0.7-0.4,1
			c-0.6,0-1.2,0-1.8,0.1s-1.2,0.1-1.8,0.3c-0.6,0.1-1.1,0.2-1.7,0.4c-0.5,0.1-1,0.3-1.3,0.4L185.6,48.4L185.6,48.4z"/>
		<path class="st1" d="M209.4,28c-2.2,0-3.8,0.7-5,2c-1.2,1.3-1.7,3.2-1.7,5.6c0,2.5,0.6,4.3,1.9,5.7c1.3,1.3,3,2,5.2,2
			c1.2,0,2.1-0.2,2.9-0.5s1.6-0.7,2.3-1.1c0.5,0.4,0.9,0.9,1.1,1.4s0.4,1.2,0.4,1.9c0,1.2-0.6,2.1-1.9,2.9s-3.2,1.2-5.9,1.2
			c-1.9,0-3.7-0.3-5.3-0.8c-1.7-0.5-3.1-1.4-4.4-2.5c-1.2-1.1-2.2-2.5-2.9-4.2s-1.1-3.7-1.1-6.1c0-2.2,0.3-4.1,1-5.8
			c0.7-1.7,1.6-3.1,2.8-4.3s2.6-2,4.2-2.6s3.3-0.9,5.2-0.9c2.6,0,4.6,0.4,6,1.3c1.4,0.8,2.1,1.9,2.1,3.3c0,0.7-0.2,1.4-0.5,1.9
			c-0.4,0.5-0.8,1-1.3,1.3c-0.7-0.5-1.5-0.9-2.3-1.2C211.5,28.2,210.5,28,209.4,28z"/>
		<path class="st1" d="M228.4,27.3c1.5,0,2.9,0.2,4.2,0.5c1.3,0.3,2.3,0.8,3.2,1.4s1.6,1.4,2.1,2.4s0.7,2.1,0.7,3.4v9.5
			c0,0.7-0.2,1.3-0.6,1.8s-0.9,0.9-1.5,1.2c-1.8,1.1-4.4,1.6-7.7,1.6c-1.5,0-2.8-0.1-4-0.4s-2.2-0.7-3.1-1.3c-0.9-0.6-1.5-1.3-2-2.2
			s-0.7-1.9-0.7-3c0-1.9,0.6-3.4,1.7-4.5c1.2-1,2.9-1.7,5.4-1.9l5.5-0.6v-0.3c0-0.8-0.4-1.4-1.1-1.8s-1.8-0.5-3.1-0.5
			c-1.1,0-2.1,0.1-3.1,0.3c-1,0.2-1.9,0.5-2.8,0.8c-0.4-0.3-0.7-0.6-0.9-1.2c-0.3-0.5-0.4-1.1-0.4-1.6c0-0.7,0.2-1.3,0.5-1.8
			c0.4-0.4,0.9-0.8,1.6-1.1c0.8-0.3,1.8-0.5,2.9-0.7C226.4,27.4,227.4,27.3,228.4,27.3z M228.8,43.9c0.5,0,1,0,1.6-0.1
			s1-0.2,1.3-0.4V40l-3,0.3c-0.8,0.1-1.4,0.2-1.9,0.5s-0.8,0.7-0.8,1.3c0,0.6,0.2,1,0.7,1.4C227,43.7,227.7,43.9,228.8,43.9z"/>
		<path class="st1" d="M250.2,41.4c0,0.7,0.2,1.3,0.7,1.6s1.1,0.5,2,0.5c0.4,0,0.9,0,1.3-0.1s0.8-0.2,1.2-0.3c0.3,0.3,0.5,0.7,0.7,1
			c0.2,0.4,0.3,0.8,0.3,1.4c0,1.1-0.4,1.9-1.2,2.6c-0.8,0.7-2.2,1-4.3,1c-2.5,0-4.4-0.6-5.7-1.7c-1.3-1.1-2-3-2-5.5V23.8
			c0.3-0.1,0.8-0.2,1.3-0.3c0.6-0.1,1.2-0.1,1.8-0.1c1.2,0,2.2,0.2,2.9,0.7c0.7,0.4,1,1.4,1,2.8v2.7h5.5c0.2,0.3,0.3,0.7,0.5,1.2
			c0.2,0.5,0.2,1,0.2,1.5c0,1-0.2,1.7-0.7,2.1c-0.4,0.4-1,0.7-1.8,0.7h-3.8v6.3H250.2z"/>
	</g>
	<g>
		
			<linearGradient id="SVGID_1_" gradientUnits="userSpaceOnUse" x1="15.6" y1="-82.3087" x2="61.066" y2="-82.3087" gradientTransform="matrix(1 0 0 1 0 116)">
			<stop  offset="0" style="stop-color:#0463EF"/>
			<stop  offset="1" style="stop-color:#07ABA0"/>
		</linearGradient>
		<path class="st2" d="M34.5,7.2c-7.4,0-14.1,3-18.9,7.9C20,11.2,25.7,8.9,32,8.9c12.4,0,22.6,9.1,24.5,20.9c-1.3-0.8-2.3-1.5-3-2.5
			c-4.5-6.6-6.6-6.7-7.8-7.8c-1.1-1-3-4.8-2.5-2.5c0.6,3.1-2.1,5.9-3.2,6.6c-1.1,0.7-1,1.8-1.7,3.7c-0.9,0.8-1.6,1.1-1.8,2.3
			s1.4,2,1.8,3s0.6,0.8,4.4,1.3c3.9,0.4,4.3,2.6,3,6c-1.1,2.9,3.1,8.5,4.6,10.7c-4.5,4.9-11,7.9-18.2,7.9c-6.3,0-12.1-2.4-16.4-6.2
			c4.8,4.9,11.5,7.9,18.9,7.9c14.7,0,26.6-11.9,26.6-26.6C61,19.1,49.2,7.2,34.5,7.2z"/>
		
			<linearGradient id="SVGID_2_" gradientUnits="userSpaceOnUse" x1="9.6507" y1="-82.5087" x2="48.8507" y2="-82.5087" gradientTransform="matrix(1 0 0 1 0 116)">
			<stop  offset="0" style="stop-color:#9027E2"/>
			<stop  offset="1" style="stop-color:#FB4FAF"/>
		</linearGradient>
		<path class="st3" d="M29.5,54.6c0.3-0.5,0.6-1.1,0.9-1.7c0.4-0.8,0.7-1.6,0.9-2.4c0.3-0.8,0.4-1.7,0.4-2.5c0-0.6-0.1-1.3-0.1-1.9
			c-0.4-3.3-1.9-6.4-1.8-8c0,0,2.2,0.1,4.1-1c1-0.6,1.3-1.2,1.4-1.9c0.1-0.7-0.3-1.4-0.8-2c-0.2-0.3-0.3-0.5-0.4-0.8
			c-0.3-1.1,0.4-2.4-1.5-3.8c-1.8-1.4-3.4-1.3-3.6-1.3c0-0.1,0.1-1.8,0.5-3c0.1-0.3,0.3-0.6,0.4-1c0,0,0,0-0.1,0l0,0l0,0l0,0l0,0
			l0,0l0,0l0,0l0,0l0,0l0,0c0,0,0,0-0.1,0l0,0c-0.1,0-0.1,0.1-0.2,0.1l0,0h-0.1l0,0h-0.1l0,0h-0.1l0,0c-0.1,0.1-0.3,0.1-0.5,0.2l0,0
			c-0.1,0-0.1,0-0.1,0.1l0,0c-0.1,0-0.1,0-0.1,0.1l0,0c-0.1,0-0.1,0.1-0.1,0.1l0,0c-0.2,0.1-0.4,0.2-0.5,0.3l0,0
			c-0.1,0-0.1,0.1-0.1,0.1l0,0c-0.1,0-0.1,0.1-0.1,0.1l0,0c-0.1,0-0.1,0.1-0.1,0.1l0,0c-0.1,0-0.1,0.1-0.1,0.1l0,0
			c-0.1,0.1-0.2,0.1-0.3,0.2l0,0c-0.1,0-0.1,0.1-0.1,0.1s0,0-0.1,0S26.9,25,26.9,25h-0.1c-0.1,0-0.1,0.1-0.1,0.1s-0.1,0-0.1,0.1
			c-0.1,0-0.1,0.1-0.1,0.1s-0.1,0-0.1,0.1c-0.1,0-0.1,0.1-0.1,0.1s-0.1,0-0.1,0.1c-0.1,0-0.1,0.1-0.1,0.1s0,0-0.1,0
			c-0.1,0.1-0.1,0.1-0.1,0.1s-0.1,0-0.1,0.1c-0.1,0-0.1,0.1-0.1,0.1l-0.1,0.1l0,0c0,0,0,0-0.1,0l0,0c-1,0.8-2,1.8-2.9,3
			c-0.4,0.5-0.8,1.1-1.1,1.8l0,0c-0.1,0.1-0.1,0.3-0.1,0.4l0,0c-0.1,0.1-0.1,0.2-0.1,0.3c0,0,0,0.1-0.1,0.1c0,0.1-0.1,0.1-0.1,0.2
			S21,32,21,32c0,0.1-0.1,0.1-0.1,0.1c0,0.1-0.1,0.1-0.1,0.1c0,0.1-0.1,0.1-0.1,0.1s0,0.1-0.1,0.1c0,0.1-0.1,0.1-0.1,0.2v0.1
			c0,0.1-0.1,0.1-0.1,0.2l0,0c-0.8,2-1,3.8-1.3,5.3l0,0c0,0.1,0,0.1-0.1,0.1v0.1v0.1v0.1v0.1v0.1v0.1V39v-0.7
			c-0.1,0.1-0.1,0.3-0.1,0.4l0,0c0,0.1,0,0.1-0.1,0.1c0,0,0,0,0,0.1s0,0.1-0.1,0.1v0.1c0,0.1,0,0.1-0.1,0.1v0.1c0,0.1,0,0.1-0.1,0.1
			v0.1c0,0.1,0,0.1-0.1,0.1c0,0,0,0,0,0.1c-0.1,0.1-0.1,0.3-0.1,0.4v0.1c0,0.1-0.1,0.1-0.1,0.1l0,0c0,0.1-0.1,0.1-0.1,0.1v0.1
			c0,0.1-0.1,0.1-0.1,0.1s0,0.1-0.1,0.1c0,0.1-0.1,0.1-0.1,0.1s0,0.1-0.1,0.1c0,0.1-0.1,0.1-0.1,0.1s0,0,0,0.1
			c-0.1,0.1-0.1,0.1-0.1,0.2c0,0,0,0.1-0.1,0.1l-0.1,0.1c0,0,0,0.1-0.1,0.1s-0.1,0.1-0.1,0.1L17,41.8l-0.1,0.1L16.8,42l-0.1,0.1
			l-0.1,0.1v0.1l-0.1,0.1l-0.1,0.1c-0.1,0.1-0.1,0.1-0.1,0.1l1-0.4c0,0.1-0.1,0.1-0.1,0.1l0,0c0,0.1-0.1,0.1-0.1,0.1L17,42.5
			c0,0.1-0.1,0.1-0.1,0.1l-0.1,0.1c-0.1,0.1-0.1,0.1-0.1,0.1l-0.1,0.1C16.5,43,16.5,43,16.5,43l-0.1,0.1c-0.1,0.1-0.1,0.1-0.2,0.1
			c0.1-0.1,0.1,0-0.1,0.1c-0.1,0.1-0.1,0.1-0.3,0.2l0,0l-0.2-0.2c0.1,0.1,0.1,0.2,0.1,0.3l0,0c-0.1-0.1-0.1-0.2-0.1-0.3l0,0
			c-1.5-2.9-2.4-6.2-2.4-9.7c0-11.8,9.6-21.4,21.4-21.4c5.5,0,10.4,2,14.2,5.3c-4.1-4.3-9.9-6.9-16.3-6.9
			c-12.6,0-22.9,10.2-22.9,22.9c0,7.1,3.2,13.3,8.1,17.5v0.1h0.1c3.9,3.3,9,5.3,14.6,5.3c6.4,0,12.2-2.6,16.3-6.9
			c-3.7,3.3-8.7,5.3-14.2,5.3C32.9,55.1,31.2,55,29.5,54.6z"/>
	</g>
</g>
</svg>
